<svg width="467" height="128" viewBox="0 0 467 128" fill="none" xmlns="http://www.w3.org/2000/svg">
<path d="M466.581 82.5807H53.6775V128H466.581V82.5807Z" fill="#364151"/>
<path d="M12.3871 12.3871L50.5374 52.313C52.2758 54.1323 55.0791 54.1323 56.8175 52.313L94.9678 12.3871" stroke="#155DFC" stroke-width="24.7742" stroke-miterlimit="10" stroke-linecap="round"/>
<path d="M195.716 101.158H114.347V85.5226H147.049V73.631C141.103 72.9704 135.818 71.3188 131.413 68.8964C127.009 66.474 123.596 63.2809 121.173 59.5373C118.751 55.7936 117.54 51.4994 117.54 46.8749C117.54 41.5897 119.081 36.9652 122.274 32.7811C125.357 28.597 129.762 25.4039 135.487 23.0917C141.213 20.8895 147.709 19.6783 155.086 19.6783C162.354 19.6783 168.85 20.8895 174.576 23.0917C180.301 25.4039 184.705 28.597 187.899 32.7811C190.982 36.9652 192.633 41.5897 192.633 46.8749C192.633 51.4994 191.422 55.7936 189 59.5373C186.577 63.2809 183.054 66.474 178.65 68.8964C174.135 71.3188 168.96 72.9704 163.124 73.631V85.5226H195.716V101.158ZM140.112 55.6835C143.966 57.9957 148.92 59.0968 155.086 59.0968C161.142 59.0968 166.097 57.9957 169.951 55.6835C173.805 53.4813 175.787 50.5084 175.787 46.8749C175.787 43.3514 173.805 40.3785 169.951 38.0663C166.097 35.8641 161.142 34.653 155.086 34.653C148.92 34.653 143.966 35.8641 140.112 38.0663C136.258 40.3785 134.386 43.3514 134.386 46.8749C134.386 50.5084 136.258 53.4813 140.112 55.6835ZM278.946 36.0844V48.5265H206.495V19.0177H222.24V36.0844H278.946ZM201.54 64.382V52.16H282.91V64.382H201.54ZM222.02 90.3674V93.5605H279.056V104.131H206.385V81.4487H262.65V78.3656H206.165V67.9054H278.285V90.3674H222.02ZM364.708 66.6942V104.131H349.183V19.5682H364.708V50.5084H373.737V66.6942H364.708ZM314.609 21.5502V41.8099C314.609 60.0878 312.627 73.8512 308.663 83.1003C304.699 92.3493 298.423 97.0839 289.945 97.194V81.779C293.248 80.8981 295.56 77.3747 297.102 71.2087C298.533 65.1527 299.304 55.9037 299.304 43.3514V36.6349H289.945V21.5502H314.609ZM341.696 21.5502V42.5807C341.696 60.9687 339.383 75.0624 334.869 84.9721C330.354 94.8818 323.418 99.9467 314.169 100.167V84.7519C322.317 82.9902 326.391 69.4469 326.391 44.1222V36.6349H317.472V21.5502H341.696ZM453.773 104.131H437.808V19.5682H453.773V104.131ZM411.822 57.9957L435.165 89.9269L422.613 99.8366L406.427 76.6039C403.124 84.2013 399.05 90.037 394.095 94.0009C389.03 98.0749 383.525 100.167 377.469 100.167V83.3205C381.323 82.88 384.736 80.788 387.819 76.8241C390.792 72.8603 393.214 67.465 394.976 60.6383C396.738 53.8117 397.619 45.8839 397.839 36.8551H379.671V21.5502H431.091V36.8551H413.804C413.584 45.2233 412.923 52.2702 411.822 57.9957Z" fill="white"/>
</svg>
